<svg width="128" height="128" viewBox="0 0 128 128" fill="none" xmlns="http://www.w3.org/2000/svg">
<rect width="128" height="128" rx="20" fill="#2A2A2C"/>
<path d="M46 58C46.6822 61 45.2041 63.1496 45.2041 63.1496C45.2041 63.1496 42.4586 63.2293 41 62.5C37 60.5 36 58 33 50C29.597 41.8684 27.9899 28.2071 27.9899 28.2071C27.9899 28.2071 32.9152 38.9876 37.6423 46.5188C41.5 52.6647 45.3178 55 46 58Z" fill="#FFE7E7"/>
<path d="M46.9309 73.595C47.6599 70.3909 46.4117 68.1203 46.4117 68.1203C46.4117 68.1203 43.9434 68.0708 42.6025 68.8663C38.9253 71.0481 37.9294 73.7237 34.9225 82.2833C31.5479 90.9882 29.578 105.56 29.578 105.56C29.578 105.56 34.4244 94.0138 38.968 85.9314C42.6759 79.3357 46.2019 76.7992 46.9309 73.595Z" fill="#DEE5E1"/>
<path d="M61.3511 69.2744C56.2869 65.3706 52.0823 64.3883 52.0823 64.3883C52.0823 64.3883 51.1386 66.8348 51.9912 68.9767C54.3294 74.8506 58.4232 78.5019 71.5821 90.0017C84.854 102.017 108.354 118.41 108.354 118.41C108.354 118.41 90.8803 102.099 79.0497 89.5175C69.3952 79.2499 66.4154 73.1783 61.3511 69.2744Z" fill="url(#paint0_linear_10_23)"/>
<path d="M56.3266 55.3679C54.2715 58.8056 51.4465 59.9022 51.4465 59.9022C51.4465 59.9022 49.4918 58.0734 49.1025 56.3396C48.0351 51.5847 49.451 48.4203 54.1195 38.4329C58.6217 28.0356 69.0114 13.4233 69.0114 13.4233C69.0114 13.4233 63.327 27.4951 60.2405 38.2192C57.7217 46.9709 58.3818 51.9303 56.3266 55.3679Z" fill="url(#paint1_linear_10_23)"/>
<path d="M74.6557 62.334C70.7356 59.439 67.4087 59.4219 67.4087 59.4219C67.4087 59.4219 66.5767 62.2357 67.1892 64.2917C68.8689 69.93 72.022 72.7938 82.1645 81.749C92.3808 91.2214 110.627 102.836 110.627 102.836C110.627 102.836 97.1916 89.8455 88.1446 79.4246C80.7617 70.9205 78.5758 65.2291 74.6557 62.334Z" fill="#F4F4F4"/>
<path d="M70.9794 51.7076C69.2324 54.393 66.8951 54.858 66.8951 54.858C66.8951 54.858 65.3233 52.8789 65.0345 51.267C64.2425 46.8465 65.4602 44.2886 69.4671 36.2515C73.3447 27.8198 82.1277 16.7037 82.1277 16.7037C82.1277 16.7037 77.2152 28.1889 74.4934 37.1669C72.2723 44.4934 72.7264 49.0223 70.9794 51.7076Z" fill="#EEEEEE"/>
<defs>
<linearGradient id="paint0_linear_10_23" x1="106.245" y1="119.279" x2="79.0709" y2="53.2766" gradientUnits="userSpaceOnUse">
<stop stop-color="#A5DEE4"/>
<stop offset="1" stop-color="#405B55"/>
</linearGradient>
<linearGradient id="paint1_linear_10_23" x1="66.9202" y1="12.9144" x2="55.2604" y2="60.8303" gradientUnits="userSpaceOnUse">
<stop stop-color="#EB7A77"/>
<stop offset="1" stop-color="#FEDFE1"/>
</linearGradient>
</defs>
</svg>
